# xmcd
#
# Track frame offsets: 
#        150
#        9085
#        21889
#        34010
#        46155
#        63125
#        77131
#        88292
#        98803
#        110102
#        123691
#        134801
#        150871
#        165299
#        176224
#        188907
#        201387
#        216416
#        228921
#        244229
#        256185
#        265991
#        280518
#        293106
#        304802
#
# Disc length: 4238 seconds
#
# Revision: 0
# Processed by: cddbd v1.5.2PL0 Copyright (c) Steve Scherf et al.
# Submitted via: ExactAudioCopyFreeDBPlugin 1.0
#
DISCID=60108c19
DTITLE=Ray Charles - 100 Hits CD1
DYEAR=2018
DGENRE=Blues
TTITLE0=Hit The Road Jack
TTITLE1=I Got A Woman
TTITLE2=It Should've Been Me
TTITLE3=Leave My Woman Alone
TTITLE4=Don't Let The Sun Catch You Cryin'
TTITLE5=Hide 'Nor Hair
TTITLE6=This Little Girl Of Mine
TTITLE7=Hey Now
TTITLE8=You Be My Baby
TTITLE9=The Midnight Hour
TTITLE10=Sweet Georgia Brown
TTITLE11=Cherry
TTITLE12=But On The Other Hand Baby
TTITLE13=’Deed I Do
TTITLE14=I Wonder Who
TTITLE15=Don't You Know
TTITLE16=You Won't Let Me Go
TTITLE17=That's Enough
TTITLE18=Tell Me You'll Wait For Me
TTITLE19=Nobody Cares
TTITLE20=Josephine
TTITLE21=Funny But I Still Love You
TTITLE22=What Kind Of Man Are You
TTITLE23=Roll With My Baby
TTITLE24=Ray's Blues
EXTD=
EXTT0=
EXTT1=
EXTT2=
EXTT3=
EXTT4=
EXTT5=
EXTT6=
EXTT7=
EXTT8=
EXTT9=
EXTT10=
EXTT11=
EXTT12=
EXTT13=
EXTT14=
EXTT15=
EXTT16=
EXTT17=
EXTT18=
EXTT19=
EXTT20=
EXTT21=
EXTT22=
EXTT23=
EXTT24=
PLAYORDER=
